<svg width="869" height="185" viewBox="0 0 869 185" fill="none" xmlns="http://www.w3.org/2000/svg">
<path d="M71.4703 0.0882684C77.6673 -0.651732 83.2683 3.36425 86.5843 8.26725C86.7813 9.40725 87.0183 10.7573 87.0203 11.9143C87.1023 58.4953 65.1863 87.0923 16.7393 88.9993C8.57932 89.2453 2.1303 88.7773 0.2533 78.6943C-0.4817 74.7493 0.538332 69.5483 1.33533 65.6213C8.44133 30.6143 36.5693 5.66227 71.4703 0.0882684Z" fill="#C8FF5C"/>
<path d="M106.541 0.127197C143.382 3.7232 171.215 32.1012 179.528 67.6392C182.145 78.8282 179.92 87.1872 167.699 89.5222C150.999 89.3562 131.707 84.8222 118.141 74.4962C99.4316 61.2542 95.9666 41.1962 92.9336 19.9402C91.2666 8.26519 94.4636 1.5822 106.541 0.127197Z" fill="#C8FF5C"/>
<path d="M9.35343 96.0343C22.2634 94.8343 39.5824 98.8262 50.9124 103.718C72.8164 113.248 84.1294 133.346 85.8714 156.565C86.7104 167.746 91.7254 179.257 77.5934 183.848C50.3494 186.948 18.5654 160.359 8.06137 136.937C4.14537 128.205 -1.7786 113.669 1.1464 103.71C2.3764 99.5252 5.65743 97.6423 9.35343 96.0343Z" fill="#C8FF5C"/>
<path d="M163.03 96.1464C170.174 95.6514 179.897 98.2384 180.034 106.69C180.6 141.658 144.512 179.662 111.376 183.95C92.1863 185.6 91.5033 175.081 94.1583 160.317C96.9983 144.524 98.3513 131.077 109.607 118.446C123.463 102.897 143.144 97.7974 163.03 96.1464Z" fill="#C8FF5C"/>
<path d="M89.7264 44.8904L90.5823 44.5674C94.1373 61.1304 97.5864 73.0914 112.323 82.6914C119.624 87.3504 127.913 90.2404 136.529 91.1284C139.975 91.4064 142.008 91.9774 137.204 93.1364C119.216 99.1224 105.018 104.986 95.9573 123.06C93.7403 127.583 92.1373 132.382 91.1913 137.329C90.8113 138.919 90.7524 139.212 90.6644 140.851L89.6764 140.102C85.5704 119.639 76.0734 104.134 55.3754 97.4694C50.0464 95.7524 44.6004 94.1504 39.3384 92.2484C48.0504 90.1464 57.8454 87.9844 65.7194 83.7454C82.3714 74.7794 84.7704 60.5074 89.7264 44.8904Z" fill="white"/>
<path d="M136.529 91.1282C139.975 91.4062 142.008 91.9772 137.204 93.1362C136.997 92.0992 136.998 92.1602 136.529 91.1282Z" fill="white"/>
<path d="M91.1912 137.329C91.2032 138.657 91.2942 145.67 90.8892 146.285C90.2442 146.277 90.4522 145.452 90.4722 145.035C90.0782 143.116 89.8553 142.073 89.6763 140.102L90.6642 140.851C90.7522 139.212 90.8112 138.919 91.1912 137.329Z" fill="white"/>
<path d="M89.6763 140.102L90.6642 140.851C90.6572 142.378 90.5882 143.527 90.4722 145.035C90.0782 143.116 89.8553 142.073 89.6763 140.102Z" fill="white"/>
<path d="M89.6074 42.4963C89.7394 42.3773 90.0994 41.9383 90.3974 41.9163C90.4434 41.9133 90.5114 41.9373 90.5414 41.9713C90.7944 42.2513 90.7124 42.9673 90.7184 43.2633C90.7214 43.4073 90.7284 43.5503 90.7334 43.6943L90.5824 44.5673L89.7264 44.8903L89.6074 42.4963Z" fill="white"/>
<path d="M89.6074 42.4963C89.9254 42.8953 90.3774 43.3303 90.7334 43.6943L90.5824 44.5674L89.7264 44.8904L89.6074 42.4963Z" fill="white"/>
<path d="M217.23 147V38.5H237.69V128.4H287.29V147H217.23ZM338.439 149.17C330.792 149.17 323.92 147.62 317.824 144.52C311.727 141.42 306.922 136.925 303.409 131.035C299.895 125.145 298.139 118.067 298.139 109.8V107.32C298.139 99.0533 299.895 91.975 303.409 86.085C306.922 80.195 311.727 75.7 317.824 72.6C323.92 69.5 330.792 67.95 338.439 67.95C346.085 67.95 352.957 69.5 359.054 72.6C365.15 75.7 369.955 80.195 373.469 86.085C376.982 91.975 378.739 99.0533 378.739 107.32V109.8C378.739 118.067 376.982 125.145 373.469 131.035C369.955 136.925 365.15 141.42 359.054 144.52C352.957 147.62 346.085 149.17 338.439 149.17ZM338.439 131.81C344.432 131.81 349.392 129.898 353.319 126.075C357.245 122.148 359.209 116.568 359.209 109.335V107.785C359.209 100.552 357.245 95.0233 353.319 91.2C349.495 87.2733 344.535 85.31 338.439 85.31C332.445 85.31 327.485 87.2733 323.559 91.2C319.632 95.0233 317.669 100.552 317.669 107.785V109.335C317.669 116.568 319.632 122.148 323.559 126.075C327.485 129.898 332.445 131.81 338.439 131.81ZM393.046 108.87V106.39C393.046 98.33 394.648 91.4583 397.851 85.775C401.054 79.9883 405.291 75.5967 410.561 72.6C415.934 69.5 421.773 67.95 428.076 67.95C435.103 67.95 440.424 69.19 444.041 71.67C447.658 74.15 450.293 76.7333 451.946 79.42H454.736V70.12H473.956V160.64C473.956 165.91 472.406 170.095 469.306 173.195C466.206 176.398 462.073 178 456.906 178H405.446V160.95H450.086C452.979 160.95 454.426 159.4 454.426 156.3V136.305H451.636C450.603 137.958 449.156 139.663 447.296 141.42C445.436 143.073 442.956 144.468 439.856 145.605C436.756 146.742 432.829 147.31 428.076 147.31C421.773 147.31 415.934 145.812 410.561 142.815C405.291 139.715 401.054 135.323 397.851 129.64C394.648 123.853 393.046 116.93 393.046 108.87ZM433.656 130.26C439.649 130.26 444.661 128.348 448.691 124.525C452.721 120.702 454.736 115.328 454.736 108.405V106.855C454.736 99.8283 452.721 94.455 448.691 90.735C444.764 86.9117 439.753 85 433.656 85C427.663 85 422.651 86.9117 418.621 90.735C414.591 94.455 412.576 99.8283 412.576 106.855V108.405C412.576 115.328 414.591 120.702 418.621 124.525C422.651 128.348 427.663 130.26 433.656 130.26ZM532.189 149.17C524.542 149.17 517.67 147.62 511.574 144.52C505.477 141.42 500.672 136.925 497.159 131.035C493.645 125.145 491.889 118.067 491.889 109.8V107.32C491.889 99.0533 493.645 91.975 497.159 86.085C500.672 80.195 505.477 75.7 511.574 72.6C517.67 69.5 524.542 67.95 532.189 67.95C539.835 67.95 546.707 69.5 552.804 72.6C558.9 75.7 563.705 80.195 567.219 86.085C570.732 91.975 572.489 99.0533 572.489 107.32V109.8C572.489 118.067 570.732 125.145 567.219 131.035C563.705 136.925 558.9 141.42 552.804 144.52C546.707 147.62 539.835 149.17 532.189 149.17ZM532.189 131.81C538.182 131.81 543.142 129.898 547.069 126.075C550.995 122.148 552.959 116.568 552.959 109.335V107.785C552.959 100.552 550.995 95.0233 547.069 91.2C543.245 87.2733 538.285 85.31 532.189 85.31C526.195 85.31 521.235 87.2733 517.309 91.2C513.382 95.0233 511.419 100.552 511.419 107.785V109.335C511.419 116.568 513.382 122.148 517.309 126.075C521.235 129.898 526.195 131.81 532.189 131.81ZM629.886 149.17C621.826 149.17 614.696 147.517 608.496 144.21C602.399 140.8 597.594 135.84 594.081 129.33C590.671 122.82 588.966 114.76 588.966 105.15V80.35C588.966 65.9867 592.789 55.085 600.436 47.645C608.083 40.1017 618.364 36.33 631.281 36.33C644.094 36.33 653.859 39.8433 660.576 46.87C667.293 53.8967 670.651 63.3 670.651 75.08V75.855H657.786V74.77C657.786 69.6033 656.856 65.005 654.996 60.975C653.136 56.945 650.243 53.7933 646.316 51.52C642.389 49.1433 637.378 47.955 631.281 47.955C622.084 47.955 614.903 50.7967 609.736 56.48C604.569 62.06 601.986 69.9133 601.986 80.04V105.46C601.986 115.587 604.569 123.492 609.736 129.175C614.903 134.755 622.136 137.545 631.436 137.545C640.529 137.545 647.194 134.962 651.431 129.795C655.771 124.628 657.941 117.757 657.941 109.18V106.545H625.081V95.385H670.651V147H658.871V135.22H656.701C655.564 137.493 653.963 139.715 651.896 141.885C649.829 144.055 647.039 145.812 643.526 147.155C640.013 148.498 635.466 149.17 629.886 149.17ZM729.575 149.17C721.929 149.17 715.212 147.568 709.425 144.365C703.639 141.058 699.144 136.46 695.94 130.57C692.737 124.68 691.135 117.86 691.135 110.11V108.25C691.135 100.397 692.737 93.525 695.94 87.635C699.144 81.745 703.587 77.1983 709.27 73.995C714.954 70.6883 721.464 69.035 728.8 69.035C735.93 69.035 742.234 70.585 747.71 73.685C753.187 76.6817 757.475 81.0217 760.575 86.705C763.675 92.3883 765.225 99.0533 765.225 106.7V112.28H703.38C703.69 120.443 706.325 126.85 711.285 131.5C716.245 136.047 722.445 138.32 729.885 138.32C736.395 138.32 741.407 136.822 744.92 133.825C748.434 130.828 751.12 127.263 752.98 123.13L763.52 128.245C761.97 131.448 759.8 134.652 757.01 137.855C754.324 141.058 750.759 143.745 746.315 145.915C741.975 148.085 736.395 149.17 729.575 149.17ZM703.535 102.205H752.825C752.412 95.1783 749.984 89.7017 745.54 85.775C741.2 81.8483 735.62 79.885 728.8 79.885C721.877 79.885 716.194 81.8483 711.75 85.775C707.307 89.7017 704.569 95.1783 703.535 102.205ZM786.584 147V71.205H798.519V84.07H800.689C802.342 80.4533 805.132 77.1983 809.059 74.305C813.089 71.3083 818.979 69.81 826.729 69.81C832.412 69.81 837.475 70.9983 841.919 73.375C846.465 75.7517 850.082 79.265 852.769 83.915C855.455 88.565 856.799 94.3 856.799 101.12V147H844.554V102.05C844.554 94.5067 842.642 89.03 838.819 85.62C835.099 82.21 830.035 80.505 823.629 80.505C816.292 80.505 810.299 82.8817 805.649 87.635C801.102 92.3883 798.829 99.4667 798.829 108.87V147H786.584Z" fill="white"/>
</svg>
